<?xml version="1.0" standalone="no"?>
<!DOCTYPE svg PUBLIC "-//W3C//DTD SVG 20010904//EN"
 "http://www.w3.org/TR/2001/REC-SVG-20010904/DTD/svg10.dtd">
<svg version="1.0" xmlns="http://www.w3.org/2000/svg"
 width="652.000000pt" height="680.000000pt" viewBox="0 0 652.000000 680.000000"
 preserveAspectRatio="xMidYMid meet">

<g transform="translate(0.000000,680.000000) scale(0.100000,-0.100000)"
fill="#000000" stroke="none">
<path d="M3189 6581 c-24 -25 -29 -37 -29 -80 0 -45 -3 -51 -20 -51 -74 0
-224 -83 -286 -158 -66 -79 -114 -201 -114 -289 l0 -42 -453 -3 -453 -3 -75
-37 c-181 -90 -269 -231 -269 -431 l0 -93 -77 -12 c-204 -31 -372 -183 -412
-370 -14 -68 -14 -196 0 -264 42 -198 216 -349 432 -374 l55 -7 4 -111 c3
-104 6 -116 40 -189 41 -86 112 -165 190 -210 92 -54 126 -57 570 -57 l408 0
0 -155 0 -155 -637 0 c-690 0 -719 -2 -821 -54 -28 -14 -54 -26 -57 -26 -3 0
-5 79 -5 177 0 171 -1 178 -25 220 -16 27 -42 51 -68 66 -41 21 -50 22 -352
22 l-310 0 -47 -27 c-32 -19 -52 -41 -67 -71 -20 -41 -21 -59 -21 -346 l0
-303 30 -30 c27 -26 36 -30 67 -25 21 4 48 18 62 32 l26 25 3 280 3 280 257
-2 257 -3 3 -712 2 -713 -259 0 -260 0 -3 270 -3 270 -26 25 c-38 38 -103 39
-135 2 l-24 -28 0 -295 c0 -270 2 -298 19 -332 23 -46 46 -67 94 -87 30 -12
88 -15 334 -15 268 0 302 2 338 19 46 21 79 54 94 94 6 16 11 101 11 193 0 91
3 164 8 162 105 -54 212 -87 280 -88 l22 0 0 -255 0 -255 -38 0 c-109 0 -242
-62 -332 -156 -66 -68 -104 -140 -120 -224 -14 -72 -13 -829 1 -906 24 -130
122 -266 236 -327 100 -53 141 -57 703 -57 562 0 603 4 703 57 69 37 158 126
191 191 51 100 56 143 56 449 l0 283 359 0 360 0 3 -318 3 -318 37 -75 c57
-115 148 -198 266 -243 55 -20 73 -21 600 -24 350 -2 562 1 599 8 169 31 313
158 364 321 17 56 19 97 19 507 0 474 -2 499 -50 591 -66 131 -247 240 -397
241 l-43 0 0 254 0 254 53 7 c76 9 156 33 204 61 l41 24 4 -168 c3 -153 5
-170 26 -207 13 -22 40 -51 60 -65 l37 -25 314 -3 c300 -3 315 -2 356 18 25
12 55 38 71 62 l29 41 3 299 3 299 -35 35 c-31 31 -40 35 -68 29 -43 -10 -64
-24 -77 -52 -7 -15 -11 -120 -11 -283 l0 -260 -260 0 -260 0 0 715 0 715 260
0 260 0 0 -269 c0 -148 4 -281 10 -295 24 -63 125 -71 160 -13 19 30 20 52 20
320 0 308 -3 332 -53 385 -51 55 -61 57 -362 60 -307 4 -365 -2 -417 -46 -58
-49 -68 -87 -68 -274 0 -93 -3 -168 -6 -168 -3 0 -18 8 -32 19 -15 10 -49 27
-77 37 -47 18 -94 19 -722 22 l-673 3 0 154 0 155 409 0 c458 0 482 3 586 73
142 97 204 212 213 393 l5 101 57 6 c183 20 359 158 410 324 28 92 28 284 0
376 -51 166 -212 287 -414 312 l-56 7 0 77 c-1 207 -94 362 -270 449 l-75 37
-452 3 -452 3 -6 57 c-16 131 -66 233 -154 315 -63 58 -126 92 -203 110 l-48
12 0 48 c0 63 -39 107 -95 107 -27 0 -44 -8 -66 -29z m205 -333 c62 -19 130
-91 150 -157 9 -30 16 -72 16 -93 l0 -38 -316 0 -317 0 7 56 c12 106 58 178
139 219 46 22 63 25 165 25 63 0 133 -6 156 -12z m1251 -495 c56 -19 121 -78
150 -138 19 -39 20 -63 20 -741 l0 -701 -30 -48 c-17 -27 -50 -64 -73 -82 -88
-67 -7 -64 -1488 -61 l-1339 3 -46 23 c-60 30 -112 82 -141 141 l-23 46 0 685
c0 635 1 688 18 723 27 57 86 118 142 143 l50 24 1356 0 c1236 0 1360 -1 1404
-17z m-3155 -874 l0 -321 -47 7 c-106 15 -195 79 -233 168 -19 43 -23 69 -23
157 1 114 12 154 59 209 42 50 143 95 226 100 16 1 17 -25 18 -320z m3647 290
c66 -28 107 -64 139 -121 28 -51 29 -59 29 -178 0 -109 -3 -130 -22 -165 -42
-79 -117 -126 -220 -140 l-53 -7 0 320 0 320 43 -5 c23 -3 61 -14 84 -24z
m-1537 -1524 l0 -155 -355 0 -355 0 0 155 0 155 355 0 355 0 0 -155z m1220
-1009 l0 -675 -427 -3 c-415 -3 -430 -4 -487 -25 -165 -62 -275 -216 -293
-410 l-6 -63 -358 0 -357 0 -7 43 c-14 94 -29 145 -63 210 -60 117 -188 213
-313 237 -29 6 -229 10 -445 10 l-394 0 0 668 c0 368 3 672 7 675 3 4 712 7
1575 7 l1568 0 0 -674z m-3330 348 l1 -317 -55 6 c-106 11 -188 67 -229 157
-26 58 -28 244 -3 302 41 96 144 163 253 167 l32 1 1 -316z m3673 285 c105
-53 139 -114 145 -259 5 -122 -5 -169 -48 -227 -36 -49 -129 -100 -202 -109
l-48 -7 0 318 0 318 56 -7 c30 -3 74 -16 97 -27z m-2648 -1516 c95 -32 158
-119 180 -245 l6 -38 -756 0 -755 0 0 38 c0 111 82 220 190 253 14 4 264 8
556 8 470 1 536 -1 579 -16z m2612 2 c89 -26 164 -126 179 -238 l7 -47 -497 0
-496 0 -1 28 -2 27 -4 -27 -4 -28 -255 0 -254 0 0 33 c0 115 81 225 190 258
14 4 264 8 556 8 442 1 539 -2 581 -14z m-2427 -635 l0 -150 -755 0 -755 0 0
150 0 150 755 0 755 0 0 -150z m1610 0 l0 -150 -255 0 -255 0 0 150 0 150 255
0 255 0 0 -150z m1000 0 l0 -150 -495 0 -495 0 0 150 0 150 495 0 495 0 0
-150z m-2615 -387 c-10 -73 -43 -139 -87 -179 -76 -69 -77 -69 -441 -72 -260
-3 -332 -1 -345 10 -13 11 -14 11 -8 -1 7 -11 -28 -12 -205 -8 -138 3 -227 9
-251 17 -85 30 -155 125 -165 225 l-6 55 758 0 757 0 -7 -47z m1616 25 l2 -23
4 23 4 22 496 0 496 0 -6 -52 c-8 -68 -52 -153 -97 -189 -64 -52 -122 -59
-459 -59 -275 0 -306 2 -325 18 -20 16 -20 16 -6 -1 13 -18 6 -19 -201 -15
-237 5 -257 9 -328 73 -43 39 -78 111 -88 180 l-6 45 257 0 256 0 1 -22z"/>
<path d="M2419 5447 c-108 -45 -176 -124 -205 -236 -29 -114 3 -229 88 -314
65 -64 127 -91 223 -95 145 -7 254 57 317 186 29 59 33 76 33 147 -1 97 -30
170 -95 235 -93 93 -246 126 -361 77z m206 -187 c42 -26 67 -72 67 -126 0
-116 -117 -188 -221 -135 -52 27 -81 72 -81 129 0 127 127 199 235 132z"/>
<path d="M3808 5456 c-101 -36 -163 -92 -207 -186 -21 -45 -26 -70 -26 -135 0
-71 4 -89 33 -147 63 -129 172 -193 317 -186 98 5 160 32 227 100 86 88 116
229 73 348 -28 78 -120 170 -198 199 -66 24 -162 27 -219 7z m181 -192 c90
-54 94 -195 7 -257 -23 -16 -45 -22 -86 -22 -92 0 -152 59 -152 151 0 60 28
104 82 132 50 26 102 24 149 -4z"/>
<path d="M2792 4470 c-47 -44 -38 -114 19 -142 31 -16 73 -18 444 -18 370 0
413 2 445 18 56 28 66 96 20 142 -19 19 -35 20 -463 20 -431 0 -444 -1 -465
-20z"/>
<path d="M2517 2970 c-112 -20 -217 -103 -257 -205 -36 -92 -33 -200 7 -286
33 -72 87 -123 163 -155 40 -17 78 -19 335 -22 182 -2 300 0 317 7 41 15 62
63 48 107 -20 61 -37 64 -330 64 -283 0 -308 4 -348 55 -28 36 -45 99 -37 137
12 52 69 105 126 117 62 14 1356 15 1413 1 78 -18 128 -78 128 -154 0 -60 -24
-100 -75 -131 l-44 -25 -262 0 c-285 0 -312 -4 -331 -56 -16 -42 -12 -64 20
-95 l30 -30 292 3 293 3 63 29 c166 77 240 277 164 440 -38 80 -88 131 -171
170 l-66 31 -715 2 c-393 0 -736 -3 -763 -7z"/>
<path d="M1701 1524 c0 -11 3 -14 6 -6 3 7 2 16 -1 19 -3 4 -6 -2 -5 -13z"/>
<path d="M4394 1728 l-19 -23 23 19 c12 11 22 21 22 23 0 8 -8 2 -26 -19z"/>
<path d="M1701 724 c0 -11 3 -14 6 -6 3 7 2 16 -1 19 -3 4 -6 -2 -5 -13z"/>
<path d="M1750 570 c6 -11 13 -20 16 -20 2 0 0 9 -6 20 -6 11 -13 20 -16 20
-2 0 0 -9 6 -20z"/>
<path d="M1770 536 c0 -2 8 -10 18 -17 15 -13 16 -12 3 4 -13 16 -21 21 -21
13z"/>
</g>
</svg>
